<?xml version="1.0" encoding="utf-8"?>
<!-- Generator: Adobe Illustrator 25.0.1, SVG Export Plug-In . SVG Version: 6.00 Build 0)  -->
<svg version="1.1" xmlns="http://www.w3.org/2000/svg" xmlns:xlink="http://www.w3.org/1999/xlink" x="0px" y="0px"
	 viewBox="0 0 1920 1080" style="enable-background:new 0 0 1920 1080;" xml:space="preserve">
<style type="text/css">
	.st0{display:none;}
	.st1{display:inline;opacity:0.24;}
	.st2{fill:#FFFFFF;}
	.st3{opacity:0.1;fill:none;stroke:#000000;stroke-width:3;stroke-miterlimit:10;}
</style>
<g id="Layer_1" class="st0">
	<g class="st1">
		<path class="st2" d="M821.8,465.1c-0.8,0.2-1.6,0.4-2.4,0.7c-1.5-3.2-3.4-6.3-4.6-9.6c-1.9-5.7-2.7-11.9-5.2-17.2
			c-1.7-3.6-5-7.3-8.6-9c-9.4-4.6-44.8,3-51.2,11.3c-10.2,13.2-16.8,28.2-16.1,45.3c0.5,12,6.6,16.8,18.2,13.3
			c7.4-2.3,14-7.2,21.1-10.6c2.6-1.2,5.9-1.3,8.8-1.9c0.3,3.3,1.5,6.8,0.7,9.8c-2,6.9-5.5,13.3-7.6,20.2c-1.7,5.5,1.1,8.9,6.8,9.4
			c4.1,0.3,8.3-0.5,12.3,0.2c3.3,0.7,8,2.1,8.9,4.5c1.1,2.8-1,7-2.2,10.4c-0.6,1.7-2.4,3-3.6,4.5c-4.5,5.3-4.4,11-1.1,16.8
			c5,8.8,12.8,12.2,23,11.4c3.3-0.2,7.6,1,10.2,3.1c6.9,5.5,7,5.8,12.9-1.1c11.7-13.6,19.2-15.4,36.4-9.8c7.5,2.4,15.4,5.9,22.9,5.5
			c15.1-0.7,26.4,4.9,36,15.9c6.3,7.1,13.8,12.9,23.7,14.2c6.8,0.9,11.6,4.5,15,10c2.8,4.5,5.6,9,7.6,13.9c5,12,13.4,17.6,26.5,16.4
			c23.7-2.1,44.9,7,66.4,14.8c5.5,2,8.3,6.1,6.9,11.9c-1.6,7-3.6,14-6.3,20.6c-6.1,15.1-13.7,29.7-19,45.1
			c-5.8,16.7-14.9,28.2-33.5,30.3c-15.6,1.7-25.8,10.7-29,26c-2.8,13.2-10.9,20.1-22.6,25.6c-21.8,10.4-41.2,24.1-50.9,47.8
			c-4.1,9.8-8.7,10.7-16.9,3.7c-3.4-2.9-6.3-6.7-8.4-10.7c-2.9-6-5.8-12.4-7.1-18.9c-5.2-26.7-10.4-53.4-14.4-80.2
			c-2-13.2-6.8-23.3-18.8-29.6c-6.6-3.4-13.3-6.9-19.4-11.2c-7.8-5.6-15.5-11.4-22.2-18.2c-10.6-10.9-14.5-24.6-11.1-39.4
			c2.3-9.8,6.8-19,9.8-28.6c3.6-11.6,7.6-23.3,9.6-35.2c1.5-9-2.4-13.6-11.3-15.8c-11.4-2.8-19.8-9.3-24.6-19.6
			c-8.9-19.6-26.3-31-41.7-44.3c-2.6-2.2-6.4-3.5-9.8-4.1c-10-1.6-17.2-7.1-22.9-15c-9.8-13.8-9.4-29.4-7.9-45.2
			c2.7-28.3,5.8-56.5,8.2-84.8c2-22.3,7.2-42.1,29.4-53.4c9.7-5,15.4-14.5,16.8-25.7c1.5-11.4,7.8-18.8,17.2-25.1
			c6.8-4.6,11.8-11.6,17.5-17.7c4.2-4.6,8.2-9.3,12.2-14.1c1.5-1.7,2.5-3.8,3.7-5.7c-2.3,0.2-5.1-0.2-6.8,0.9
			c-20.2,13.5-41.8,25.4-60,41.3C636.5,362.1,592,479.7,623.3,620.1c43.4,194.8,239.7,314,433,264.3
			c109.5-28.1,189-94.4,235.3-198.8c7.3-16.5,14.8-33.3,15-51.7c0.2-14.2-0.8-28.1-11.6-39.7c-10.4-11.2-9.8-22.2-0.2-34.2
			c0.9-1.1,2.5-2.4,2.4-3.5c-0.3-2.2-1.1-5.5-2.6-6.3c-8.9-4.5-30.6,1.1-35.5,9.5c-5,8.9-12.4,12.5-21.9,12.9
			c-7.9,0.2-15.9-0.2-23.8-0.9c-10.6-0.9-18.1-6.5-23.6-15.8c-4.9-8.3-10.2-16.4-16.3-23.8c-7-8.5-10.3-17.7-9.4-28.6
			c1.4-17.1,2.8-34.1,4.1-51.2c1.1-13.8,5.9-26.4,13.7-37.6c10.2-14.6,20.7-29,31.2-43.4c3.1-4.4,6.8-6.2,11.6-2.8
			c9,6.3,19.4,7.7,30,9.2c5.9,0.8,10.4-0.7,12-6.4c1.4-4.8,2.5-10.3,1.5-15c-2.4-10.3-8.3-18.1-19-21.8c-8.7-2.9-12.9-9.5-12.4-19
			c0.2-2.6,0.3-5.7-0.9-7.7c-1.7-2.8-4.3-6.3-7.2-7.1c-2.3-0.6-7.1,1.9-8.1,4.1c-2.7,5.9-4.3,12.5-5.6,19c-0.7,3.3,0.2,7,0.4,11.1
			c-3.4-0.5-5.8-0.7-8.1-1.2c-12.4-2.8-14.1-1.5-18.3,10.4c-2.9,8.3-7.5,16-11.6,23.9c-2.1,4.1-5.9,4.7-9.9,3.2
			c-5.9-2.1-8.9-6.1-9.3-12.4c-0.3-6.2,2.8-9.8,8.3-12c8.6-3.4,9.8-6.3,5.6-14.6c-1.7-3.4-3.9-6.7-6.2-9.8
			c-4.1-5.6-8.4-11.8-17.6-4.7c-0.3-4.4-1.1-8.6,0.7-11.1c3.9-5.6,8.8-10.7,13.8-15.5c5.5-5.2,8.9-11.1,7.1-18.5
			c-2.8-11.5-10.7-19.3-20.8-24.6c-5.5-2.8-9.7,0.2-9.3,6.5c0.2,3.3,1.8,6.4,2.7,9.6c0.7,2.6,1.4,5.2,2.4,9.4
			c-7.2-0.7-12.9-1.1-18.5-2c-7.3-1.2-10.2,1.5-7.5,8.5c1.1,3,3.5,5.7,5.7,8.1c2.3,2.4,5.7,4,7.5,6.7c1.5,2.3,2.4,5.9,1.6,8.4
			c-0.3,1.3-4.9,2.4-7.2,2c-11.1-2-19.2-8.8-25.2-17.8c-1.6-2.4-1.3-6.1-1.9-9.3c2.6,0.3,5.4,0.2,7.9,1c6.4,2.1,8.9,0.7,9.6-6.1
			c1-9.1-1-17.2-7.6-23.9c-2.8-2.9-5.5-6.1-8.2-9.1c-5-5.5-7.5-11.6-4.6-19.2c2.4-6-0.1-10.5-5.5-13.1c-6.7-3.3-13.4-6.8-20.6-8.6
			c-52.2-14.1-105-20.2-158.5-7.6c-28.3,6.6-56.2,14.6-84.5,22c2.4,6.3,2.4,6.3,8.9,4.3c13.6-3.8,15.8-2.3,15.7,11.2
			c0,10.5,5.1,15.5,15.6,15.1c4.2-0.2,8.5,0.2,12.8-0.2c3-0.2,6.3-0.7,8.9-2c3.3-1.7,6-4.5,9-6.8c0.4,0.5,0.9,1.1,1.3,1.5
			c-3.7,4.5-7.3,8.8-10.8,13.3c-2.4,3-5.4,5.9-6.5,9.3c-1.8,5.2-5.1,7.2-10.2,7.6c-5.5,0.5-11.1,0.7-16.5,2
			c-13.4,3.1-20.2,15.9-13.4,26.1c3.3,5,8.4,9.6,13.7,12.1c15,7.2,31.5-2.2,34.2-18.6c0.7-3.9,2-7.7,3.5-13.8
			c6.2,5.2,12.1,8.5,15.5,13.4c6,8.7,10.5,10.6,20.3,5.8c1.6-0.8,3.3-1.5,6.3-2.9c1.1,4.9,2.4,8.9,2.7,13.1
			c0.7,7.8,4.5,13,11.8,15.8c2.2,0.9,4.6,1.9,6.4,3.3c4.4,3.4,6.5,7.1,2.8,12.9c-1.5,2.4-0.7,7.1,0.6,10.2c1.3,3.3,4.2,6,6.8,9.4
			c-14.6,1.8-26.8-4.1-29.5-13.9c-1.4-5.2-4.1-8.6-9.4-8c-3.1,0.3-8.4,2.9-8.4,4.6c-0.1,3.7,2,8,4.2,11.2c2.1,3.1,5.7,5.3,8.6,7.9
			c-0.2,1-0.4,1.9-0.7,2.8c-6.3,0.2-12.5,1-18.7,0.7c-7.8-0.4-13.8,2.1-17.6,8.9c-3,5.5-7.5,8.1-13.4,9.8
			c-9.8,2.8-18.8,8.1-20.6,19.1c-2.1,13-9.7,20.7-21.1,25.3c-12.9,5.2-18.5,14.6-18,28.2C822.6,456.3,822,460.7,821.8,465.1z"/>
		<path d="M821.8,465.1c0.2-4.4,0.8-8.9,0.7-13.3c-0.5-13.6,5-23,18-28.2c11.4-4.6,19-12.3,21.1-25.3c1.8-11,10.7-16.2,20.6-19.1
			c5.9-1.7,10.3-4.3,13.4-9.8c3.7-6.8,9.8-9.3,17.6-8.9c6.2,0.3,12.4-0.4,18.7-0.7c0.2-1,0.4-1.9,0.7-2.8c-2.9-2.6-6.4-4.7-8.6-7.9
			c-2.3-3.3-4.3-7.5-4.2-11.2c0-1.7,5.3-4.3,8.4-4.6c5.2-0.7,7.9,2.8,9.4,8c2.7,9.9,15,15.7,29.5,13.9c-2.5-3.4-5.5-6.1-6.8-9.4
			c-1.2-3.1-2-7.8-0.6-10.2c3.7-5.9,1.5-9.5-2.8-12.9c-1.9-1.5-4.1-2.4-6.4-3.3c-7.2-2.8-11.1-8-11.8-15.8
			c-0.4-4.1-1.7-8.2-2.7-13.1c-2.9,1.4-4.6,2.1-6.3,2.9c-9.8,4.9-14.2,2.9-20.3-5.8c-3.4-5-9.4-8.2-15.5-13.4
			c-1.5,6.2-2.8,9.9-3.5,13.8c-2.8,16.4-19.1,25.8-34.2,18.6c-5.4-2.5-10.5-7.2-13.7-12.1c-6.8-10.2,0-23,13.4-26.1
			c5.4-1.2,11-1.5,16.5-2c5-0.4,8.3-2.4,10.2-7.6c1.2-3.4,4.2-6.3,6.5-9.3c3.6-4.5,7.2-8.9,10.8-13.3c-0.4-0.5-0.9-1.1-1.3-1.5
			c-3,2.4-5.7,5.1-9,6.8c-2.6,1.4-5.9,1.7-8.9,2c-4.2,0.3-8.5,0.1-12.8,0.2c-10.5,0.3-15.7-4.6-15.6-15.1c0.1-13.5-2.1-15-15.7-11.2
			c-6.7,1.9-6.7,1.9-8.9-4.3c28.3-7.4,56.3-15.5,84.5-22c53.4-12.5,106.2-6.4,158.5,7.6c7.2,2,13.8,5.5,20.6,8.6
			c5.5,2.6,7.9,7.1,5.5,13.1c-2.9,7.5-0.4,13.6,4.6,19.2c2.8,3.1,5.4,6.3,8.2,9.1c6.6,6.8,8.5,14.8,7.6,23.9
			c-0.7,6.8-3.2,8.2-9.6,6.1c-2.4-0.8-5.2-0.7-7.9-1c0.6,3.1,0.2,6.8,1.9,9.3c6,9.1,14.2,15.8,25.2,17.8c2.4,0.4,6.8-0.7,7.2-2
			c0.7-2.5-0.2-6.1-1.6-8.4c-1.8-2.7-5.2-4.2-7.5-6.7c-2.3-2.4-4.6-5.1-5.7-8.1c-2.6-6.9,0.2-9.8,7.5-8.5c5.6,0.9,11.3,1.3,18.5,2
			c-1.1-4.2-1.7-6.8-2.4-9.4c-0.9-3.3-2.5-6.3-2.7-9.6c-0.4-6.3,3.8-9.4,9.3-6.5c10.2,5.3,18,13.1,20.8,24.6
			c1.8,7.5-1.5,13.4-7.1,18.5c-5,4.7-9.8,9.8-13.8,15.5c-1.8,2.5-1.1,6.8-0.7,11.1c9.2-7.1,13.4-0.9,17.6,4.7
			c2.3,3.1,4.5,6.3,6.2,9.8c4.1,8.3,3,11.2-5.6,14.6c-5.5,2.2-8.6,5.9-8.3,12c0.3,6.3,3.5,10.3,9.3,12.4c4.1,1.5,7.8,0.9,9.9-3.2
			c4.1-7.9,8.5-15.6,11.6-23.9c4.2-11.9,5.9-13.3,18.3-10.4c2.3,0.5,4.7,0.7,8.1,1.2c-0.2-4.1-1.1-7.8-0.4-11.1
			c1.3-6.4,2.9-13,5.6-19c1.1-2.3,5.8-4.7,8.1-4.1c2.8,0.7,5.5,4.2,7.2,7.1c1.2,2,1.1,5.1,0.9,7.7c-0.5,9.4,3.8,15.9,12.4,19
			c10.7,3.7,16.7,11.5,19,21.8c1.1,4.7-0.2,10.2-1.5,15c-1.6,5.7-6.2,7.2-12,6.4c-10.6-1.4-21-2.8-30-9.2c-4.8-3.3-8.5-1.5-11.6,2.8
			c-10.4,14.5-21,28.8-31.2,43.4c-7.8,11.2-12.6,23.8-13.7,37.6c-1.4,17.1-2.8,34.1-4.1,51.2c-0.9,10.9,2.5,20.1,9.4,28.6
			c6.1,7.4,11.4,15.5,16.3,23.8c5.5,9.3,13,14.8,23.6,15.8c7.9,0.7,15.9,1.1,23.8,0.9c9.4-0.3,16.8-4,21.9-12.9
			c4.8-8.5,26.5-14,35.5-9.5c1.5,0.8,2.3,4.1,2.6,6.3c0.2,1-1.5,2.4-2.4,3.5c-9.4,12-10.2,22.9,0.2,34.2
			c10.8,11.6,11.7,25.5,11.6,39.7c-0.2,18.5-7.7,35.1-15,51.7C1245,789.5,1165.5,855.8,1056,883.9c-193.3,49.7-389.6-69.5-433-264.3
			c-31.3-140.4,13.2-258,120.5-352.1c18.1-15.9,39.8-27.7,60-41.3c1.7-1.1,4.5-0.7,6.8-0.9c-1.2,2-2.3,4-3.7,5.7
			c-4,4.8-8,9.5-12.2,14.1c-5.7,6.1-10.7,13.2-17.5,17.7c-9.4,6.3-15.8,13.7-17.2,25.1c-1.5,11.2-7.2,20.7-16.8,25.7
			c-22.2,11.5-27.5,31.2-29.4,53.4c-2.4,28.3-5.5,56.5-8.2,84.8c-1.5,15.8-2,31.4,7.9,45.2c5.7,8,12.9,13.4,22.9,15
			c3.4,0.6,7.2,1.9,9.8,4.1c15.5,13.3,32.7,24.6,41.7,44.3c4.7,10.2,13.2,16.8,24.6,19.6c8.9,2.2,12.8,6.8,11.3,15.8
			c-2,12-6,23.6-9.6,35.2c-3,9.6-7.6,18.8-9.8,28.6c-3.4,14.8,0.5,28.5,11.1,39.4c6.7,6.8,14.5,12.7,22.2,18.2
			c6,4.3,12.8,7.7,19.4,11.2c12.1,6.3,16.8,16.4,18.8,29.6c4,26.8,9.2,53.5,14.4,80.2c1.3,6.5,4.1,12.9,7.1,18.9c2,4,5,7.8,8.4,10.7
			c8.2,7,12.9,6.1,16.9-3.7c9.8-23.8,29.1-37.4,50.9-47.8c11.8-5.6,19.8-12.5,22.6-25.6c3.3-15.3,13.4-24.3,29-26
			c18.6-2.1,27.7-13.6,33.5-30.3c5.4-15.4,12.9-29.9,19-45.1c2.7-6.6,4.6-13.6,6.3-20.6c1.4-5.7-1.4-9.8-6.9-11.9
			c-21.5-7.7-42.7-16.8-66.4-14.8c-13.1,1.1-21.6-4.4-26.5-16.4c-2-4.9-4.8-9.4-7.6-13.9c-3.5-5.5-8.3-9.1-15-10
			c-9.8-1.3-17.4-7.2-23.7-14.2c-9.8-11-20.9-16.5-36-15.9c-7.6,0.3-15.5-3-22.9-5.5c-17.2-5.7-24.6-3.8-36.4,9.8
			c-6,6.9-6.1,6.6-12.9,1.1c-2.6-2.1-6.9-3.3-10.2-3.1c-10.2,0.9-18.1-2.5-23-11.4c-3.3-5.8-3.4-11.5,1.1-16.8
			c1.2-1.5,3-2.8,3.6-4.5c1.2-3.4,3.3-7.6,2.2-10.4c-0.9-2.4-5.6-3.8-8.9-4.5c-4-0.7-8.1,0.1-12.3-0.2c-5.7-0.4-8.5-3.8-6.8-9.4
			c2.2-6.8,5.6-13.3,7.6-20.2c0.9-2.9-0.4-6.5-0.7-9.8c-2.9,0.6-6.1,0.6-8.8,1.9c-7.2,3.3-13.7,8.3-21.1,10.6
			c-11.6,3.6-17.8-1.2-18.2-13.3c-0.7-17.2,5.9-32.1,16.1-45.3c6.3-8.2,41.8-15.9,51.2-11.3c3.6,1.7,6.9,5.5,8.6,9
			c2.5,5.4,3.3,11.6,5.2,17.2c1.1,3.3,3,6.4,4.6,9.6C820.2,465.6,821,465.3,821.8,465.1z M835.6,576c14-22,32.4-20.4,52.5-11.9
			c4.6,2,9.9,3.2,14.8,2.8c15.3-1.3,26.9,4.4,36.9,15.6c7.1,8.1,15.8,13.7,27,15.6c4.4,0.7,8.9,4.7,12,8.5c4.1,5,7.3,10.8,9.8,16.8
			c4.2,9.9,10.8,14.5,21.9,13.5c24.6-2.1,46.8,7.2,69.1,15.5c7.6,2.8,11.1,8.8,9.6,16.6c-1.3,7.1-2.4,14.6-5.9,20.7
			c-9.4,16.2-15.8,33.4-21.5,51.1c-5.2,16.1-15.6,26.6-32.8,28.6c-16.7,2-25.9,11.1-29.3,27.1c-2.4,11.3-9.6,17.9-19.9,22.9
			c-11.1,5.5-21.6,12.5-31.9,19.7c-10.6,7.4-16.5,18.5-21.9,30c-4.5,9.5-9.5,11.6-18.5,6.4c-5.5-3.3-10.9-8.2-14.2-13.7
			c-4.2-7.2-7.5-15.3-9.1-23.4c-5.4-26.8-10.2-53.9-14.5-80.9c-1.6-10.7-5.6-18.6-15.3-23.7c-5.1-2.7-10.4-5.2-15-8.5
			c-9.7-7.1-19.8-13.8-28.3-22.1c-11.6-11.5-16.3-26.4-12.7-42.5c2.4-11.1,7.3-21.8,10.9-32.7c3.2-9.5,6.5-19.1,8.8-28.9
			c1.3-5.5,0.3-11.6-6.8-13.1c-15.7-3.3-24.8-13.8-31.6-27.3c-8.7-17.3-25.2-26.8-39.1-38.9c-1.3-1.1-3.5-1.5-5.4-1.7
			c-16.1-2.8-27-12.6-31.6-27.4c-3.3-10.7-4.6-22.8-3.9-34c2-29.5,5.9-58.9,8.2-88.4c2-25.1,8.6-46.7,32.9-59.4
			c7.2-3.7,12-10.7,13-19.1c2-14.9,9.6-25,22.5-32.5c5.8-3.3,9.8-9.5,14.7-14.4c-0.6-0.5-1.1-1.1-1.6-1.5c-0.7,0.2-1.4,0.5-2,0.8
			c-97,63.9-155.9,152.1-166.8,268.9c-8.7,93.5,17.4,178.2,77.7,250.1c84.8,101,194.7,144,325.1,123.9
			c115.6-17.8,201.9-80.3,255.3-185.7c9.9-19.5,19.7-39.5,21.9-61.7c1.4-14.4-0.5-27.9-10.2-40.7c-11-14.2-13.5-27.7-0.8-39.7
			c0.5-0.5,0.5-1.5,0.9-2.8c-12.9,0.1-24.2,0.9-31.5,13.8c-2.4,4.2-9.2,7.9-14.3,8.3c-12.1,1-24.4,0.6-36.5-0.5
			c-9.6-0.9-16.5-7.1-21.6-15.3c-5.5-8.5-10.7-17.2-17.1-25c-8.1-9.9-12-20.7-10.9-33.4c1.3-15.4,2.9-30.7,3.7-46.1
			c1.1-18.5,7.6-34.7,18.1-49.5c8.8-12.4,17.8-24.6,26.8-36.8c7.4-10.1,11.1-10.2,22.6-5.3c8.2,3.6,17.2,5.2,26.1,7.2
			c1.7,0.4,5-1.6,6-3.4c5.4-8.5-1.4-23.3-12.9-28c-12.2-4.9-18.5-13.1-18-26.5c0.1-2.8-1.5-5.7-2.8-9.9c-2.5,2.8-4.3,4-4.6,5.3
			c-1.2,7-2.5,14-2.8,21c-0.2,7.8-2.7,10.7-10.5,9.7c-1.9-0.2-3.8-0.7-5.6-1.3c-5.9-2.3-8.2,0-10.4,5.8c-3.6,9.4-8.1,18.4-13.2,27
			c-1.6,2.8-5.9,5.2-9.3,5.7c-8.3,1.2-16.8-5.6-18.8-13.8c-2.4-9.8,1.3-17.5,10.2-21.2c1.7-0.7,3.4-1.4,6.6-2.8
			c-4.5-6.9-8.5-13.2-12.6-19.5c-0.4,0.7-0.7,1.4-1.1,2.1c-3.7-0.3-9,0.7-10.7-1.3c-2.5-3-3.3-8.1-3.1-12.4c0.1-3,2.1-6.4,4.2-8.9
			c3.7-4.4,7.9-8.5,12.1-12.3c4-3.7,6.9-7.7,5.6-13.3c-2.4-10.2-9.7-16.4-18.9-20.9c0.2,3.8,1.3,7.1,2.6,10.2
			c4.3,10.5,1.2,15.2-10,15c-4.6-0.1-9.3-0.7-15.9-1.3c3.3,3.7,5.2,6,7.3,8.1c2.3,2.2,5,3.9,7.1,6.2c4.2,4.6,4.9,9.9,1.9,15.3
			c-2.8,5-7.7,4.9-12.8,3.9c-13.7-2.7-23.7-10.8-30.3-22.5c-2-3.6-1.6-10.1,0.2-13.9c2.5-4.9,7.9-2.8,12.2-0.8
			c0.8,0.3,1.7,0.4,2.8,0.7c2-8.1,0.1-14.6-4.9-20.5c-4.1-4.7-9-9-12-14.4c-2.4-4.5-4.6-10.8-3.3-15.4c2.2-8.1-0.7-11.7-7.4-14.2
			c-2.9-1.1-5.7-2.6-8.7-3.5c-57.8-17.4-116.2-21.8-175.3-6.6c-15,3.9-30.1,7.9-43.2,11.3c0.7,7.1,1.4,12.5,1.5,18.1
			c0.2,7.7,3.1,10.4,10.8,9.8c4.1-0.3,8.1-0.6,12.2-0.7c1.8-0.1,4,0.7,5.2,0c11.2-7.3,22.1-15,33.3-22.3c10.4-6.8,22-11.6,33.9-5.8
			c5.6,2.7,8.5,2.2,13.1-1.1c13.1-9.4,20.7-9,33,1.1c6.8,5.6,12.7,12.7,20,17.4c12.4,8,12.8,7.4,9.8,22.3c-0.2,1.1,0,2.4,0,4.5
			c3.3,0,6.3,0,9.4,0c6.8-0.1,13.6-0.7,20.2,0c2.9,0.3,7.3,3.3,7.8,5.6s-2.5,6.8-5,8.1c-3.9,1.9-9.1,3.1-13.2,2.2
			c-8.8-2-17.4-5.2-25.9-8.6c-5.3-2.1-9.3-2.3-12.4,2.8c-3.5,5.7-7.6,11.1-10.3,17.1c-5,11-17.2,14.2-25.1,5.1
			c-4.1-4.8-6.3-11.7-8-18.1c-1.5-5.9-1.1-12.4-1.4-18.7c-0.4-6.1-3.5-10.4-8.9-13.1c-7.4-3.8-14.8-7.5-22.5-11.3
			c-8,7.4-7.7,15,1.5,21.3c5,3.4,10.6,6.1,9.4,13.8c-2.8,18.8-19.8,26.7-35.1,16.1c-4.3-2.9-8.7-5.6-13.1-8.5
			c-0.5,0.8-1,1.6-1.5,2.4c2.4,1.3,5,2.3,7.1,4c4.3,3.6,9.4,6.8,12.3,11.5c3.4,5.6,6.8,5.9,11.8,3.4c11.5-5.5,15.3-3.3,17.1,9.3
			c0.2,1.7,0.7,3.3,0.8,5c0.2,5.8,3.4,9.2,8.6,11.2c2.8,1.1,5.8,2.6,8.2,4.5c4.7,3.6,8.3,9.4,5.4,14.3c-4,6.8-1.1,10.6,2.7,15.5
			c1.8,2.4,3.7,7.2,2.5,8.8c-1.7,2.3-6.3,4.1-9.2,3.6c-8.4-1.4-16.5-4.1-24.5-6.1c-0.5,7.2-3.4,10.3-12.2,11
			c-4.1,0.3-8.2,0.4-12.3-0.1c-6.3-0.7-10.9,1.4-13.8,6.9c-3.3,6.2-8.4,9.3-15.1,11.1c-10.2,2.7-17.5,8.7-19,20.1
			c-1.2,9.4-7.3,15.5-14.9,20.2c-3.5,2.1-7.2,4-10.9,5.7c-7.3,3.3-11.1,8.9-11.6,16.9c-0.2,5.3,0.2,10.7-0.7,15.9
			c-0.5,2.8-2.8,6.8-5,7.4c-2.4,0.7-6.7-1.1-8.5-3.3c-2.4-2.8-3.4-6.8-4.6-10.4c-1.5-4.6-2.3-9.4-3.7-13.9c-1.9-6-6.1-9.8-12.4-8.6
			c-12,2.2-23.9,5.1-35.8,8c-1.7,0.4-3.3,2-4.4,3.6c-7.8,11.8-14,24.2-13.9,38.8c0,10.3,3.7,13.3,13.6,9.6c6.8-2.6,13-7.1,19.4-11
			c6.6-4.1,12.7-3.5,15.6,3.4c1.5,3.6,1,8.8-0.2,12.9c-2.1,7.2-5.5,13.9-8.7,21.9c5.5,0,9.1,0,12.7,0c6.8,0.1,13.5,0.9,16.7,7.7
			c3.1,6.8,0,12.6-4.4,17.9c-3.1,3.7-6.9,7.2-3.6,12.7c3.4,5.5,7.6,10.7,14.9,9.4C823.1,567.4,829.8,568.7,835.6,576z M895.2,260.6
			c7.8,5,14.6,9.9,21.9,13.9c2.8,1.5,8.2,2.8,9.7,1.4c4.8-4.8,9.5-10.3,11.9-16.5c2.3-5.9-5.4-6.8-8.5-10c-0.5-0.5-1.1-0.9-1.7-1.4
			c-8.4-7.3-7.4-22.5,2.3-27.8c2.2-1.2,6.3-0.3,8.9,0.9c5,2.3,9.2,6.1,14.2,8.1c11.4,4.6,17,12.4,16.9,24.9c0,6.7,0.7,13.5,2.3,19.9
			c1.5,5.9,4.6,11.4,12,11.6s8.1-5.9,10.5-10.8c6.4-12.9,14.4-23.4,26.5-20.3c0.7-2.8,0.9-5.8,2-8.4c2.8-6.6,0-9.9-5.8-13.1
			c-5.4-2.9-10.2-7.1-14.6-11.5c-15.5-15.5-20.4-19.3-39.1-5.7c-2.4,1.7-7.6,2.4-9.6,1c-7.2-5.1-14.5-4.2-22-2.1
			c-14.6,4.1-36.3,29.9-37.9,45C895.1,260,895.2,260.5,895.2,260.6z M890.4,259.6c-0.8-0.3-1.7-0.7-2.5-1.1
			c-1.5,11.9-10.1,13.2-19.2,13.7c-2.6,0.2-5.3,0.2-7.9,0.7c-8.9,1.5-15,5.9-15.4,11.9c-0.7,8.1,5,12.5,11.1,16.3
			c2.2,1.3,4.9,2,7.5,2.4c6.4,1,18.5-3.8,19.5-8.4C886.2,283.4,888.1,271.5,890.4,259.6z M1060.5,259.7c-8.6,0-17.3,0-25.9,0
			C1043.3,263.2,1052,268.3,1060.5,259.7z M934.2,351.1c-4.5-12.5-4.5-12.5-11.2-10.6C927.1,344.4,930.6,347.8,934.2,351.1z"/>
		<path class="st2" d="M835.6,576c-5.8-7.3-12.5-8.6-20.6-7.2c-7.2,1.2-11.5-3.8-14.9-9.4c-3.4-5.5,0.5-9,3.6-12.7
			c4.4-5.3,7.5-11.1,4.4-17.9c-3.2-6.8-9.9-7.6-16.7-7.7c-3.6,0-7.2,0-12.7,0c3.3-8,6.6-14.7,8.7-21.9c1.2-4,1.8-9.2,0.2-12.9
			c-3-6.8-9-7.5-15.6-3.4c-6.3,3.9-12.4,8.4-19.4,11c-9.8,3.7-13.6,0.8-13.6-9.6c0-14.6,6.1-27,13.9-38.8c1-1.5,2.7-3.2,4.4-3.6
			c11.9-2.8,23.8-5.8,35.8-8c6.3-1.1,10.6,2.6,12.4,8.6c1.4,4.6,2.2,9.4,3.7,13.9c1.1,3.7,2.2,7.6,4.6,10.4c1.9,2.1,6.1,4,8.5,3.3
			c2.3-0.7,4.5-4.6,5-7.4c0.9-5.1,0.4-10.6,0.7-15.9c0.4-8,4.2-13.6,11.6-16.9c3.7-1.7,7.4-3.6,10.9-5.7
			c7.6-4.7,13.7-10.8,14.9-20.2c1.5-11.4,8.8-17.4,19-20.1c6.8-1.8,11.9-4.9,15.1-11.1c2.9-5.5,7.6-7.6,13.8-6.9
			c4.1,0.4,8.2,0.3,12.3,0.1c8.9-0.7,11.8-3.7,12.2-11c8,2.1,16.2,4.7,24.5,6.1c2.9,0.5,7.5-1.3,9.2-3.6c1.1-1.5-0.7-6.4-2.5-8.8
			c-3.7-4.9-6.7-8.6-2.7-15.5c2.9-5-0.7-10.7-5.4-14.3c-2.4-1.9-5.3-3.3-8.2-4.5c-5.2-2.1-8.4-5.5-8.6-11.2c-0.1-1.7-0.6-3.3-0.8-5
			c-1.9-12.6-5.6-14.7-17.1-9.3c-5.1,2.4-8.4,2.2-11.8-3.4c-2.8-4.6-8-7.9-12.3-11.5c-2-1.7-4.6-2.7-7.1-4c0.5-0.8,1-1.6,1.5-2.4
			c4.4,2.8,8.8,5.5,13.1,8.5c15.3,10.5,32.2,2.7,35.1-16.1c1.1-7.7-4.5-10.4-9.4-13.8c-9.2-6.3-9.5-13.9-1.5-21.3
			c7.6,3.8,15.1,7.6,22.5,11.3c5.3,2.8,8.5,7,8.9,13.1c0.4,6.3-0.1,12.7,1.4,18.7c1.5,6.3,3.8,13.3,8,18.1c7.9,9.1,20,5.9,25.1-5.1
			c2.8-6,6.8-11.4,10.3-17.1c3.2-5.1,7.2-5,12.4-2.8c8.4,3.4,17,6.7,25.9,8.6c4.1,0.9,9.3-0.3,13.2-2.2c2.6-1.2,5.5-5.8,5-8.1
			c-0.5-2.4-4.9-5.3-7.8-5.6c-6.7-0.8-13.4-0.1-20.2,0c-3.1,0-6.2,0-9.4,0c0-2.1-0.2-3.3,0-4.5c3-14.9,2.7-14.3-9.8-22.3
			c-7.3-4.7-13.2-11.7-20-17.4c-12.3-10.2-19.9-10.5-33-1.1c-4.6,3.3-7.5,3.7-13.1,1.1c-12-5.8-23.5-1-33.9,5.8
			c-11.2,7.2-22.1,15-33.3,22.3c-1.2,0.8-3.4-0.1-5.2,0c-4.1,0.2-8.1,0.4-12.2,0.7c-7.6,0.7-10.5-2.1-10.8-9.8
			c-0.2-5.5-0.9-11-1.5-18.1c13.1-3.4,28.1-7.5,43.2-11.3c59.1-15.2,117.4-10.8,175.3,6.6c3,0.9,5.8,2.4,8.7,3.5
			c6.8,2.5,9.6,6.1,7.4,14.2c-1.2,4.6,0.9,10.9,3.3,15.4c2.9,5.4,7.9,9.7,12,14.4c5,5.9,6.8,12.4,4.9,20.5c-1.1-0.2-2-0.2-2.8-0.7
			c-4.3-2-9.8-4.1-12.2,0.8c-2,3.8-2.3,10.3-0.2,13.9c6.6,11.7,16.6,19.8,30.3,22.5c5,1,9.9,1.2,12.8-3.9c3-5.4,2.4-10.7-1.9-15.3
			c-2.1-2.3-4.8-4-7.1-6.2c-2.1-2.1-4.1-4.4-7.3-8.1c6.7,0.6,11.3,1.2,15.9,1.3c11.2,0.2,14.3-4.5,10-15c-1.3-3.2-2.4-6.4-2.6-10.2
			c9.2,4.6,16.5,10.7,18.9,20.9c1.3,5.5-1.5,9.6-5.6,13.3c-4.3,3.8-8.5,7.9-12.1,12.3c-2.1,2.5-4.1,5.9-4.2,8.9
			c-0.1,4.2,0.7,9.4,3.1,12.4c1.7,2,7.1,1,10.7,1.3c0.4-0.7,0.7-1.4,1.1-2.1c4.1,6.3,8.1,12.5,12.6,19.5c-3.2,1.3-5,2-6.6,2.8
			c-8.9,3.8-12.6,11.5-10.2,21.2c2,8.2,10.5,15,18.8,13.8c3.3-0.5,7.6-2.8,9.3-5.7c5-8.6,9.6-17.7,13.2-27c2.2-5.7,4.5-8.1,10.4-5.8
			c1.8,0.7,3.7,1.1,5.6,1.3c7.7,1,10.2-1.8,10.5-9.7c0.2-7,1.5-14.1,2.8-21c0.2-1.4,2-2.4,4.6-5.3c1.2,4.2,2.9,7.2,2.8,9.9
			c-0.6,13.4,5.8,21.6,18,26.5c11.6,4.6,18.3,19.4,12.9,28c-1.1,1.8-4.3,3.7-6,3.4c-8.8-1.9-17.9-3.6-26.1-7.2
			c-11.6-5-15.2-4.9-22.6,5.3c-8.9,12.3-18,24.5-26.8,36.8c-10.6,14.8-17.1,31.1-18.1,49.5c-0.8,15.4-2.5,30.7-3.7,46.1
			c-1.1,12.7,2.8,23.5,10.9,33.4c6.3,7.8,11.7,16.5,17.1,25c5.2,8.1,12,14.4,21.6,15.3c12.1,1.1,24.5,1.5,36.5,0.5
			c5.1-0.4,12-4.1,14.3-8.3c7.2-12.9,18.6-13.7,31.5-13.8c-0.3,1.3-0.3,2.4-0.9,2.8c-12.6,12-10.1,25.4,0.8,39.7
			c9.8,12.7,11.6,26.3,10.2,40.7c-2.2,22.2-12,42.1-21.9,61.7c-53.4,105.3-139.8,167.9-255.3,185.7
			c-130.4,19.8-240.2-23.2-325.1-124.2c-60.3-71.8-86.4-156.5-77.7-250.1c10.8-116.7,69.7-205,166.8-268.9c0.6-0.4,1.3-0.6,2-0.8
			c0.6,0.5,1.1,1.1,1.6,1.5c-4.9,4.9-8.9,11-14.7,14.4c-12.9,7.5-20.5,17.6-22.5,32.5c-1.1,8.3-5.9,15.4-13,19.1
			c-24.3,12.6-31,34.2-32.9,59.4c-2.3,29.5-6.3,58.9-8.2,88.4c-0.7,11.2,0.5,23.3,3.9,34c4.6,14.8,15.5,24.6,31.6,27.4
			c1.9,0.3,4.1,0.6,5.4,1.7c13.9,12.1,30.4,21.6,39.1,38.9c6.8,13.4,15.9,24,31.6,27.3c7.2,1.5,8.1,7.6,6.8,13.1
			c-2.3,9.8-5.7,19.3-8.8,28.9c-3.6,10.9-8.5,21.6-10.9,32.7c-3.6,16.1,1.1,31,12.7,42.5c8.5,8.4,18.5,15.1,28.3,22.1
			c4.6,3.4,9.9,5.9,15,8.5c9.6,5,13.6,13,15.3,23.7c4.1,27.1,9.1,54.1,14.5,80.9c1.6,8.1,4.9,16.3,9.1,23.4
			c3.3,5.5,8.5,10.5,14.2,13.7c8.9,5.2,14,3.1,18.5-6.4c5.4-11.5,11.3-22.6,21.9-30c10.2-7.2,20.7-14.2,31.9-19.7
			c10.3-5,17.6-11.7,19.9-22.9c3.4-16,12.6-25.2,29.3-27.1c17.2-2,27.6-12.5,32.8-28.6c5.7-17.7,12-35,21.5-51.1
			c3.5-6,4.7-13.6,5.9-20.7c1.4-7.8-2.1-13.8-9.6-16.6c-22.3-8.4-44.5-17.7-69.1-15.5c-11.1,0.9-17.7-3.6-21.9-13.5
			c-2.5-5.9-5.8-11.8-9.8-16.8c-3-3.7-7.6-7.7-12-8.5c-11.2-2-19.8-7.6-27-15.6c-10-11.3-21.6-16.9-36.9-15.6
			c-4.8,0.4-10.2-0.8-14.8-2.8C868,555.6,849.6,554,835.6,576z"/>
		<path class="st2" d="M895.2,260.6c0,0-0.1-0.5-0.1-1c1.6-15,23.3-40.9,37.9-45c7.6-2.1,14.8-3,22,2.1c2,1.5,7.2,0.7,9.6-1
			c18.7-13.6,23.5-9.8,39.1,5.7c4.4,4.3,9.3,8.5,14.6,11.5c5.8,3.2,8.5,6.5,5.8,13.1c-1.1,2.6-1.3,5.5-2,8.4
			c-12.1-3.1-20.1,7.5-26.5,20.3c-2.4,5-3.1,11-10.5,10.8c-7.5-0.2-10.6-5.7-12-11.6c-1.6-6.4-2.3-13.3-2.3-19.9
			c0-12.4-5.5-20.3-16.9-24.9c-5-2-9.3-5.9-14.2-8.1c-2.7-1.2-6.8-2.1-8.9-0.9c-9.7,5.5-10.7,20.6-2.3,27.8c0.6,0.5,1.1,0.9,1.7,1.4
			c3.2,3.2,10.8,4.1,8.5,10c-2.4,6.2-7.2,11.7-11.9,16.5c-1.5,1.5-6.9,0.2-9.7-1.4C909.9,270.4,903,265.5,895.2,260.6z"/>
		<path class="st2" d="M890.4,259.6c-2.3,11.9-4.2,23.8-6.9,35.6c-1.1,4.6-13.1,9.3-19.5,8.4c-2.5-0.4-5.3-1.1-7.5-2.4
			c-6-3.7-11.7-8.1-11.1-16.3c0.5-5.9,6.5-10.3,15.4-11.9c2.6-0.5,5.2-0.6,7.9-0.7c9.1-0.5,17.6-1.8,19.2-13.7
			C888.7,258.9,889.5,259.3,890.4,259.6z"/>
		<path class="st2" d="M1060.5,259.7c-8.5,8.5-17.2,3.5-25.9,0C1043.2,259.7,1051.8,259.7,1060.5,259.7z"/>
		<path class="st2" d="M934.2,351.1c-3.5-3.3-7.1-6.7-11.2-10.6C929.7,338.6,929.7,338.6,934.2,351.1z"/>
	</g>
</g>
<g id="Layer_2">
	<path class="st3" d="M2279.2,1135.2c-68,364.1-424.7,619.8-812.9,619.8c-465.4,0-842.8-377.3-842.8-842.8
		c0-315,172.8-589.7,428.9-734.3c-30.4,38.6-76.9,58.4-85.8,89.1c-8.9,30.7-15.1,51.2-64.5,90.5s-101.1,374.7-65.2,415.4
		c35.9,40.8,83.2,53,123.7,89.5s77.8,131.4,103.3,134.8s68.6,13.8,35.6,91.9c-33,78.1-71.6,162.9,35.4,229.3s109,103.3,124.8,213.8
		c15.7,110.5,60.4,196,86.1,174.2c25.7-21.8,45.9-97.6,152.5-143.6c50.5-21.8,29-70.4,52.8-92.8s109.4-19.6,125.3-67.8
		c15.9-48.2,126.5-193.8,66.4-224.5s-184-25.6-208.8-42c-24.8-16.4-24.6-87.1-81.6-94.3s-73.7-70.1-111.5-75
		c-37.8-4.9-126.6-43-183.5,26.2c-10.6,12.9-109.1-60.1-91.2-91.9c17.9-31.8-28.9-44.8-52.8-49.7c-23.9-4.9,31-77,13.4-94.4
		c-17.6-17.4-104.7,61.8-115.6,14.3c-10.9-47.5,36.5-140.1,104-133.7s67.3,14.9,80.2,60.4c12.9,45.5,40.5,16.2,37.6-34.5
		s75.1-35.8,76.8-66.4c1.7-30.6,24.8-71.9,71.9-87.2c15.5-5,21.1-35.7,38.8-40.4s49.4,3.7,68-15.1c18.6-18.7,59.3,10.9,77.1,3
		c17.8-7.9-18-72.1-47.6-103.9c-29.6-31.8-12.4-51.5-25.8-59.1s-54.1,15.3-67.7-11.6s-32.6-42.9-41.6-28.5s-19.2,104-95.5,56.4
		s37.2-61.1,69.3-71.3c23.9-7.6,53.1-117.1,131.5-140.2c78.4-23.1,121.7-45.1,162.5,5.6c40.8,50.7,47.9,31.7,57.7,57.4
		c9.8,25.8-3.7,47.5,13.9,49.5c17.6,2,69.3-11.2,70.9,8c1.6,19.2-46.4,13.8-96.8-7c-50.5-20.8-40.6,66.3-79.2,77.2
		s-31.5-75.7-59.2-110.9c-27.7-35.2-75.7-57.8-83-26.4s27.4,41.6,32.3,59.1s-29.1,82.7-71,45.5c-41.9-37.1-118.6-42.6-126.9-93
		s-73.7-45.6-73.7-45.6c198.4-98,496.5-96.5,632.8-10.2c34.9,22.1,1.2,15.7,24,67.9s45.2,85,13.7,89.7s-43.2,27.5,1.8,57.8
		s83-11.3,52.2-41.9s15.4-12.9,32.3-23.7c16.9-10.8-22.3-55.4-5.2-62c17.1-6.6,60,20.5,67.7,67c7.7,46.5-53.6,34.5-51.1,81.1
		c2.4,46.6,29,11,29,11c28.8,34.6,33,35.8,27,63.9c-6,28.1-35.1,13.8-31.8,44.3s49.2,35.4,71.1-28s51.6-17.4,64.5-22.4
		s0.5-70.5,26-81.5s10.5,27.5,27.9,62.7c17.4,35.2,56.7,4.3,68.7,69.7s-83.3,6.7-125.2,28.7c-41.9,21.9-154.8,142.5-128.6,287.1
		s97.5,208,143.1,199.1s120.8-79.2,164.3-51.5c43.6,27.7-4.3,8.7-6.9,42.6C2230.1,1003.8,2293.6,1058,2279.2,1135.2z"/>
</g>
</svg>
