<?xml version="1.0" encoding="utf-8"?>
<!-- Generator: Adobe Illustrator 25.0.1, SVG Export Plug-In . SVG Version: 6.00 Build 0)  -->
<svg version="1.1" id="Layer_1" xmlns="http://www.w3.org/2000/svg" xmlns:xlink="http://www.w3.org/1999/xlink" x="0px" y="0px"
	 viewBox="0 0 512 512" style="enable-background:new 0 0 512 512;" xml:space="preserve">
<style type="text/css">
	.st0{fill:#FFFFFF;}
</style>
<g>
	<path class="st0" d="M505.9,215.2c-12.7-77.3-60.2-142.5-125.7-179.6C343.4,14.8,301,3,256,3C116.3,3,3,116.3,3,256
		c0,2.5,0,5.1,0.3,7.6c3.1,113.6,81.2,208,186.4,236.7c21.1,5.6,43.6,8.7,66.3,8.7c139.7,0,253-113.3,253-253
		C509,242.2,507.9,228.4,505.9,215.2z M256,452.8c-20,0-39.1-2.8-56.8-8.4c4.5-21.1,11-43.6,19.4-66.3
		c32.6-88.5,79.6-79.8,40.2-104.6c-30.9-19.7-92.8-27.8-199.6-16.6V256c0-108.8,88-196.8,196.8-196.8c8.7,0,17.1,0.6,25.3,2
		c-49.8,46.1-92.8,73.9-67.5,124.5c28.1,56.2,56.2,0,84.3,0s56.2,0,56.2,56.2c0,38.5,60.2,33.5,97.8,26.7
		C445.8,371.5,360.6,452.8,256,452.8z"/>
</g>
</svg>
